<?xml version="1.0" standalone="no"?>
        <!DOCTYPE svg PUBLIC "-//W3C//DTD SVG 1.1//EN" 
        "http://www.w3.org/Graphics/SVG/1.1/DTD/svg11.dtd"> <svg xmlns="http://www.w3.org/2000/svg" width="64" height="64" fill="currentColor" class="bi bi-file-earmark-excel" viewBox="0 0 16 16" id="IconChangeColor"> <path d="M5.884 6.68a.5.5 0 1 0-.768.64L7.349 10l-2.233 2.68a.5.5 0 0 0 .768.64L8 10.781l2.116 2.54a.5.5 0 0 0 .768-.641L8.651 10l2.233-2.68a.5.5 0 0 0-.768-.64L8 9.219l-2.116-2.54z" id="mainIconPathAttribute" fill="green"></path> <path d="M14 14V4.5L9.5 0H4a2 2 0 0 0-2 2v12a2 2 0 0 0 2 2h8a2 2 0 0 0 2-2zM9.5 3A1.5 1.5 0 0 0 11 4.5h2V14a1 1 0 0 1-1 1H4a1 1 0 0 1-1-1V2a1 1 0 0 1 1-1h5.5v2z" id="mainIconPathAttribute" fill="green"></path> </svg> 